<svg id="Group_12" data-name="Group 12" xmlns="http://www.w3.org/2000/svg" width="49.295" height="28.406" viewBox="0 0 49.295 28.406">
  <g id="Group_6" data-name="Group 6" transform="translate(0)">
    <path id="Path_7" data-name="Path 7" d="M171.328,347.4c-16.269-2.495-27.065-15.638-49.3-1.863q4.214,19.613,27.862,22.212C146.136,357.878,155.323,351.48,171.328,347.4Z" transform="translate(-122.033 -339.342)" fill="#272929" fill-rule="evenodd"/>
  </g>
  <g id="Group_7" data-name="Group 7" transform="translate(6.316 4.508)">
    <path id="Path_8" data-name="Path 8" d="M131.54,349.412c8.511,18.742,20.244,10.873,20.244-3.005Q138.174,345.168,131.54,349.412Z" transform="translate(-131.54 -346.127)" fill="#ffcb00" fill-rule="evenodd"/>
  </g>
  <g id="Group_8" data-name="Group 8" transform="translate(10.465 3.43)">
    <path id="Path_9" data-name="Path 9" d="M137.784,346.078q1.5,8.187,7.653,10.873-1.717-5.008,0-12.446Z" transform="translate(-137.784 -344.505)" fill="#242424" fill-rule="evenodd"/>
  </g>
  <g id="Group_9" data-name="Group 9" transform="translate(19.925 5.811)">
    <path id="Path_10" data-name="Path 10" d="M157.28,348.9l-4.175-.814a15.371,15.371,0,0,1-1.082,10.3A12.126,12.126,0,0,0,157.28,348.9Z" transform="translate(-152.023 -348.089)" fill="#fff" fill-rule="evenodd"/>
  </g>
  <g id="Group_11" data-name="Group 11" transform="translate(12.715 4.893)">
    <g id="Group_10" data-name="Group 10">
      <path id="Path_11" data-name="Path 11" d="M141.171,349.172c0-1.362.643-2.466,1.436-2.466s1.436,1.1,1.436,2.466-.642,2.466-1.436,2.466S141.171,350.533,141.171,349.172Z" transform="translate(-141.171 -346.706)" fill="#fff"/>
    </g>
  </g>
</svg>
