<svg xmlns="http://www.w3.org/2000/svg" width="62" height="78.1" viewBox="0 0 62 78.1">
  <g id="pdf" transform="translate(-19 -11)">
    <path id="Path_1019" data-name="Path 1019" d="M49.1,45.3c-.3,1-.7,2.1-1.1,3.5-1.1,3.3-1.6,4.6-1.8,5.3a15.82,15.82,0,0,1-1,2.6l-.1.2a14.167,14.167,0,0,1-.8,1.8c2.2-.9,3.7-1.4,6.2-2.2l1.4-.5a25.577,25.577,0,0,0,2.6-.9l.9-.3c-.6-.7-1.1-1.5-1.8-2.4A56.966,56.966,0,0,1,49.1,45.3ZM31.4,70.8c-.7,1.8-.4,2-.3,2.1a1.048,1.048,0,0,0,1.2.1,10.371,10.371,0,0,0,1.8-2.9c.3-.5.6-1.2,1-1.9l.3-.6C33.6,68.6,31.7,69.8,31.4,70.8ZM47.7,33.5a11.594,11.594,0,0,0,.2-5.8,4.169,4.169,0,0,0-.2-.6,4.875,4.875,0,0,0-.3.7,8.684,8.684,0,0,0,0,4.8A9.438,9.438,0,0,0,47.7,33.5Z" fill="#fff"/>
    <path id="Path_1020" data-name="Path 1020" d="M71.1,11H28.9A9.967,9.967,0,0,0,19,21.1V79a9.967,9.967,0,0,0,9.9,10.1H61.1L81,68.9V21.1A9.967,9.967,0,0,0,71.1,11ZM60.8,60.1c-.9-.8-1.7-1.4-2.3-2a20.345,20.345,0,0,0-2.6.9,21.157,21.157,0,0,1-2.7.9l-1.4.5c-3.1,1-4.5,1.5-7.7,2.8-1,.4-1.7.7-2.4,1a1.238,1.238,0,0,1-.2.3c-.2.3-1.2,2.4-2.8,5.5-.4.7-.7,1.4-1,1.9-1,2-1.5,3-2.7,4a4.717,4.717,0,0,1-3.2,1.2,4.9,4.9,0,0,1-3.2-1.2c-2.6-2.1-1.4-5.3-.9-6.6.9-2.4,3.3-3.9,7-6,1.7-1,2.9-1.6,4.1-2.2.8-1.5,1.9-3.8,2.7-5.7l.1-.2c.6-1.5.6-1.5.9-2.4.2-.7.7-2.1,1.8-5.4,1.1-3.2,1.7-5.2,2.2-7.2a32.233,32.233,0,0,1-2.8-6.7,12.693,12.693,0,0,1,0-6.7c1-3.5,3.4-3.9,4-3.9h0c1.2-.1,3.5.7,4.2,4.1.6,3.1.4,4.4-.4,8.2l-.3,1.4c-.2,1.2-.4,2.2-.6,3.1.3.5.6,1.1.9,1.6A60.481,60.481,0,0,0,57,50.1a28.467,28.467,0,0,0,2.8,3.5,5.019,5.019,0,0,1,1.2-.2,14.649,14.649,0,0,1,3.4-.3,22.361,22.361,0,0,1,4.1.3c3.8.6,4.7,3.3,4.7,4.8-.1,1.2-.2,3.8-3.7,4.6a9.01,9.01,0,0,1-4,.1A12.027,12.027,0,0,1,60.8,60.1Zm2.3,24V73.8a2.946,2.946,0,0,1,3-3H76.2Z" fill="#fff"/>
    <path id="Path_1021" data-name="Path 1021" d="M68.5,59a3.224,3.224,0,0,0,.6-.2v-.7c0-.1-.3-.5-1.3-.7a15.531,15.531,0,0,0-3.4-.3h-.8c1.7,1.4,2.5,1.8,3,1.9A5.721,5.721,0,0,0,68.5,59Z" fill="#fff"/>
  </g>
</svg>
