<svg xmlns="http://www.w3.org/2000/svg" width="58.38" height="41.023" viewBox="0 0 58.38 41.023">
  <path id="youtube" d="M59.358,18.716A22.542,22.542,0,0,0,56.945,7.763a7.744,7.744,0,0,0-4.561-2.652,207.813,207.813,0,0,0-22.2-.822,208.035,208.035,0,0,0-22.117.8A7.611,7.611,0,0,0,4.2,7.047C1.81,9.248,1.545,13.014,1.28,16.2a128.059,128.059,0,0,0,0,17.185,25.326,25.326,0,0,0,.8,5.3,8.327,8.327,0,0,0,1.883,3.607A7.585,7.585,0,0,0,7.91,44.361a119.815,119.815,0,0,0,17.238.875c9.282.133,17.423,0,27.05-.743a7.638,7.638,0,0,0,4.058-2.069,6.6,6.6,0,0,0,1.618-2.652,28.058,28.058,0,0,0,1.379-9.017C59.358,29.271,59.358,20.307,59.358,18.716ZM24.193,32.347V15.931l15.7,8.248C35.49,26.619,29.682,29.377,24.193,32.347Z" transform="translate(-0.991 -4.258)" fill="#fff"/>
</svg>
